<svg width="24" height="24" viewBox="0 0 24 24" fill="none" xmlns="http://www.w3.org/2000/svg">
<path d="M10.23 14.73L7.29 11.79C7.11 11.61 6.89 11.52 6.63 11.52C6.37 11.52 6.15 11.61 5.97 11.79C5.77 11.99 5.67 12.225 5.67 12.495C5.67 12.765 5.76 12.99 5.94 13.17L9.6 16.83C9.76 16.99 9.97 17.07 10.23 17.07C10.49 17.07 10.7 16.99 10.86 16.83L18.06 9.63C18.24 9.45 18.33 9.23 18.33 8.97C18.33 8.71 18.23 8.48 18.03 8.28C17.85 8.1 17.625 8.01 17.355 8.01C17.085 8.01 16.85 8.11 16.65 8.31L10.23 14.73ZM12 24C10.3 24 8.72 23.695 7.26 23.085C5.8 22.475 4.53 21.63 3.45 20.55C2.37 19.47 1.525 18.2 0.915 16.74C0.305 15.28 0 13.7 0 12C0 10.32 0.305 8.75 0.915 7.29C1.525 5.83 2.37 4.56 3.45 3.48C4.53 2.4 5.8 1.55 7.26 0.93C8.72 0.31 10.3 0 12 0C13.68 0 15.25 0.31 16.71 0.93C18.17 1.55 19.44 2.4 20.52 3.48C21.6 4.56 22.45 5.83 23.07 7.29C23.69 8.75 24 10.32 24 12C24 13.7 23.69 15.28 23.07 16.74C22.45 18.2 21.6 19.47 20.52 20.55C19.44 21.63 18.17 22.475 16.71 23.085C15.25 23.695 13.68 24 12 24Z" fill="white"/>
</svg>
