<svg width="48" height="24" viewBox="0 0 48 24" fill="none" xmlns="http://www.w3.org/2000/svg">
<path d="M1.5 24C1.06667 24 0.708333 23.8583 0.425 23.575C0.141667 23.2917 0 22.9333 0 22.5V21.35C0 20.05 0.691667 19 2.075 18.2C3.45833 17.4 5.26667 17 7.5 17C7.9 17 8.29167 17.0083 8.675 17.025C9.05833 17.0417 9.43333 17.0833 9.8 17.15C9.53333 17.7167 9.33333 18.3 9.2 18.9C9.06667 19.5 9 20.1333 9 20.8V24H1.5ZM13.5 24C13.0667 24 12.7083 23.8583 12.425 23.575C12.1417 23.2917 12 22.9333 12 22.5V20.8C12 18.6333 13.1083 16.875 15.325 15.525C17.5417 14.175 20.4333 13.5 24 13.5C27.6 13.5 30.5 14.175 32.7 15.525C34.9 16.875 36 18.6333 36 20.8V22.5C36 22.9333 35.8583 23.2917 35.575 23.575C35.2917 23.8583 34.9333 24 34.5 24H13.5ZM39 24V20.8C39 20.1333 38.9333 19.5 38.8 18.9C38.6667 18.3 38.4667 17.7167 38.2 17.15C38.5667 17.0833 38.9417 17.0417 39.325 17.025C39.7083 17.0083 40.1 17 40.5 17C42.7333 17 44.5417 17.4 45.925 18.2C47.3083 19 48 20.05 48 21.35V22.5C48 22.9333 47.8583 23.2917 47.575 23.575C47.2917 23.8583 46.9333 24 46.5 24H39ZM24 16.5C21.3 16.5 19.125 16.9083 17.475 17.725C15.825 18.5417 15 19.5667 15 20.8V21H33V20.75C33 19.55 32.175 18.5417 30.525 17.725C28.875 16.9083 26.7 16.5 24 16.5ZM7.5 15.5C6.53333 15.5 5.70833 15.1583 5.025 14.475C4.34167 13.7917 4 12.9667 4 12C4 11.0333 4.34167 10.2083 5.025 9.525C5.70833 8.84167 6.53333 8.5 7.5 8.5C8.46667 8.5 9.29167 8.84167 9.975 9.525C10.6583 10.2083 11 11.0333 11 12C11 12.9667 10.6583 13.7917 9.975 14.475C9.29167 15.1583 8.46667 15.5 7.5 15.5ZM40.5 15.5C39.5333 15.5 38.7083 15.1583 38.025 14.475C37.3417 13.7917 37 12.9667 37 12C37 11.0333 37.3417 10.2083 38.025 9.525C38.7083 8.84167 39.5333 8.5 40.5 8.5C41.4667 8.5 42.2917 8.84167 42.975 9.525C43.6583 10.2083 44 11.0333 44 12C44 12.9667 43.6583 13.7917 42.975 14.475C42.2917 15.1583 41.4667 15.5 40.5 15.5ZM24 12C22.3333 12 20.9167 11.4167 19.75 10.25C18.5833 9.08333 18 7.66667 18 6C18 4.33333 18.5833 2.91667 19.75 1.75C20.9167 0.583333 22.3333 0 24 0C25.6667 0 27.0833 0.583333 28.25 1.75C29.4167 2.91667 30 4.33333 30 6C30 7.66667 29.4167 9.08333 28.25 10.25C27.0833 11.4167 25.6667 12 24 12ZM24 3C23.1667 3 22.4583 3.28333 21.875 3.85C21.2917 4.41667 21 5.13333 21 6C21 6.83333 21.2917 7.54167 21.875 8.125C22.4583 8.70833 23.1667 9 24 9C24.8667 9 25.5833 8.70833 26.15 8.125C26.7167 7.54167 27 6.83333 27 6C27 5.13333 26.7167 4.41667 26.15 3.85C25.5833 3.28333 24.8667 3 24 3ZM1.5 24C1.06667 24 0.708333 23.8583 0.425 23.575C0.141667 23.2917 0 22.9333 0 22.5V21.35C0 20.05 0.691667 19 2.075 18.2C3.45833 17.4 5.26667 17 7.5 17C7.9 17 8.29167 17.0083 8.675 17.025C9.05833 17.0417 9.43333 17.0833 9.8 17.15C9.53333 17.7167 9.33333 18.3 9.2 18.9C9.06667 19.5 9 20.1333 9 20.8V24H1.5ZM13.5 24C13.0667 24 12.7083 23.8583 12.425 23.575C12.1417 23.2917 12 22.9333 12 22.5V20.8C12 18.6333 13.1083 16.875 15.325 15.525C17.5417 14.175 20.4333 13.5 24 13.5C27.6 13.5 30.5 14.175 32.7 15.525C34.9 16.875 36 18.6333 36 20.8V22.5C36 22.9333 35.8583 23.2917 35.575 23.575C35.2917 23.8583 34.9333 24 34.5 24H13.5ZM39 24V20.8C39 20.1333 38.9333 19.5 38.8 18.9C38.6667 18.3 38.4667 17.7167 38.2 17.15C38.5667 17.0833 38.9417 17.0417 39.325 17.025C39.7083 17.0083 40.1 17 40.5 17C42.7333 17 44.5417 17.4 45.925 18.2C47.3083 19 48 20.05 48 21.35V22.5C48 22.9333 47.8583 23.2917 47.575 23.575C47.2917 23.8583 46.9333 24 46.5 24H39ZM24 16.5C21.3 16.5 19.125 16.9083 17.475 17.725C15.825 18.5417 15 19.5667 15 20.8V21H33V20.75C33 19.55 32.175 18.5417 30.525 17.725C28.875 16.9083 26.7 16.5 24 16.5ZM7.5 15.5C6.53333 15.5 5.70833 15.1583 5.025 14.475C4.34167 13.7917 4 12.9667 4 12C4 11.0333 4.34167 10.2083 5.025 9.525C5.70833 8.84167 6.53333 8.5 7.5 8.5C8.46667 8.5 9.29167 8.84167 9.975 9.525C10.6583 10.2083 11 11.0333 11 12C11 12.9667 10.6583 13.7917 9.975 14.475C9.29167 15.1583 8.46667 15.5 7.5 15.5ZM40.5 15.5C39.5333 15.5 38.7083 15.1583 38.025 14.475C37.3417 13.7917 37 12.9667 37 12C37 11.0333 37.3417 10.2083 38.025 9.525C38.7083 8.84167 39.5333 8.5 40.5 8.5C41.4667 8.5 42.2917 8.84167 42.975 9.525C43.6583 10.2083 44 11.0333 44 12C44 12.9667 43.6583 13.7917 42.975 14.475C42.2917 15.1583 41.4667 15.5 40.5 15.5ZM24 12C22.3333 12 20.9167 11.4167 19.75 10.25C18.5833 9.08333 18 7.66667 18 6C18 4.33333 18.5833 2.91667 19.75 1.75C20.9167 0.583333 22.3333 0 24 0C25.6667 0 27.0833 0.583333 28.25 1.75C29.4167 2.91667 30 4.33333 30 6C30 7.66667 29.4167 9.08333 28.25 10.25C27.0833 11.4167 25.6667 12 24 12ZM24 3C23.1667 3 22.4583 3.28333 21.875 3.85C21.2917 4.41667 21 5.13333 21 6C21 6.83333 21.2917 7.54167 21.875 8.125C22.4583 8.70833 23.1667 9 24 9C24.8667 9 25.5833 8.70833 26.15 8.125C26.7167 7.54167 27 6.83333 27 6C27 5.13333 26.7167 4.41667 26.15 3.85C25.5833 3.28333 24.8667 3 24 3Z" fill="#2B308C"/>
</svg>
