<svg width="108" height="47" viewBox="0 0 108 47" fill="none" xmlns="http://www.w3.org/2000/svg">
<path d="M8.28084 22.9659H4.20377V11.0877H0.528076V7.71229H11.9565V11.0877H8.28084V22.9659ZM27.8061 15.3177C27.8061 16.4999 27.6654 17.5752 27.3836 18.5437C27.1019 19.4979 26.6654 20.324 26.0739 21.0218C25.4824 21.7197 24.722 22.2538 23.7925 22.6241C22.8771 22.9944 21.7715 23.1796 20.4759 23.1796C19.2084 23.1796 18.1099 22.9944 17.1804 22.6241C16.2651 22.2538 15.5046 21.7197 14.899 21.0218C14.3075 20.324 13.8639 19.4979 13.5681 18.5437C13.2865 17.5752 13.1456 16.4927 13.1456 15.2964C13.1456 13.7155 13.4062 12.3411 13.9272 11.1732C14.4483 9.99107 15.2511 9.07957 16.3354 8.43866C17.4199 7.79775 18.807 7.47729 20.497 7.47729C22.2152 7.47729 23.6094 7.80488 24.6797 8.46002C25.7641 9.10093 26.5526 10.0124 27.0456 11.1946C27.5526 12.3624 27.8061 13.7368 27.8061 15.3177ZM17.4339 15.3177C17.4339 16.2293 17.5325 17.0197 17.7297 17.6891C17.9409 18.3443 18.2719 18.8499 18.7225 19.2059C19.1732 19.562 19.7577 19.74 20.4759 19.74C21.2223 19.74 21.8138 19.562 22.2504 19.2059C22.701 18.8499 23.025 18.3443 23.2221 17.6891C23.4193 17.0197 23.5178 16.2293 23.5178 15.3177C23.5178 13.9362 23.2925 12.8467 22.8419 12.0491C22.3912 11.2515 21.6096 10.8527 20.497 10.8527C19.7647 10.8527 19.1732 11.0379 18.7225 11.4082C18.2719 11.7643 17.9409 12.277 17.7297 12.9464C17.5325 13.6015 17.4339 14.392 17.4339 15.3177ZM43.3301 15.0187C43.3301 16.7847 42.9993 18.2588 42.3373 19.4409C41.6895 20.6231 40.7741 21.5061 39.5911 22.09C38.4081 22.674 37.0139 22.9659 35.4084 22.9659H30.5286V7.71229H35.7464C37.3659 7.71229 38.739 7.99715 39.8657 8.56684C40.9924 9.1223 41.8514 9.94124 42.4429 11.0237C43.0344 12.1061 43.3301 13.4378 43.3301 15.0187ZM39.1052 15.1682C39.1052 14.2424 38.9785 13.4733 38.725 12.8609C38.4855 12.2485 38.1195 11.7927 37.6265 11.4937C37.1477 11.1946 36.5351 11.045 35.7886 11.045H34.6056V19.5905H35.514C36.7532 19.5905 37.6616 19.2273 38.2391 18.5009C38.8166 17.7746 39.1052 16.6637 39.1052 15.1682ZM60.1533 15.3177C60.1533 16.4999 60.0126 17.5752 59.7308 18.5437C59.4491 19.4979 59.0126 20.324 58.4211 21.0218C57.8296 21.7197 57.0691 22.2538 56.1396 22.6241C55.2241 22.9944 54.1188 23.1796 52.8231 23.1796C51.5556 23.1796 50.4571 22.9944 49.5276 22.6241C48.6121 22.2538 47.8516 21.7197 47.2461 21.0218C46.6546 20.324 46.211 19.4979 45.9153 18.5437C45.6335 17.5752 45.4928 16.4927 45.4928 15.2964C45.4928 13.7155 45.7534 12.3411 46.2744 11.1732C46.7954 9.99107 47.5981 9.07957 48.6826 8.43866C49.7671 7.79775 51.1542 7.47729 52.8442 7.47729C54.5624 7.47729 55.9566 7.80488 57.0269 8.46002C58.1114 9.10093 58.8998 10.0124 59.3928 11.1946C59.8998 12.3624 60.1533 13.7368 60.1533 15.3177ZM49.7811 15.3177C49.7811 16.2293 49.8796 17.0197 50.0768 17.6891C50.2881 18.3443 50.619 18.8499 51.0697 19.2059C51.5205 19.562 52.1048 19.74 52.8231 19.74C53.5695 19.74 54.161 19.562 54.5975 19.2059C55.0483 18.8499 55.372 18.3443 55.5693 17.6891C55.7665 17.0197 55.865 16.2293 55.865 15.3177C55.865 13.9362 55.6398 12.8467 55.189 12.0491C54.7383 11.2515 53.9567 10.8527 52.8442 10.8527C52.1119 10.8527 51.5205 11.0379 51.0697 11.4082C50.619 11.7643 50.2881 12.277 50.0768 12.9464C49.8796 13.6015 49.7811 14.392 49.7811 15.3177Z" fill="#9CB3FC"/>
<path d="M11.4918 36.222C11.4918 37.048 11.2805 37.8315 10.858 38.572C10.4496 39.3125 9.80887 39.9179 8.9357 40.3879C8.07664 40.8437 6.95703 41.0715 5.57688 41.0715C4.88681 41.0715 4.28122 41.036 3.76015 40.9647C3.25316 40.9078 2.77434 40.808 2.32367 40.6656C1.87301 40.5233 1.40827 40.338 0.929443 40.1102V36.4356C1.74626 36.8487 2.57013 37.1692 3.40103 37.397C4.23195 37.6106 4.98538 37.7174 5.66138 37.7174C6.06979 37.7174 6.40074 37.6675 6.65424 37.5679C6.90773 37.4683 7.09785 37.3329 7.2246 37.162C7.35135 36.9911 7.41472 36.7988 7.41472 36.5852C7.41472 36.3147 7.32318 36.0866 7.1401 35.9015C6.95703 35.7165 6.66831 35.5242 6.27399 35.3247C5.87967 35.1252 5.35155 34.8761 4.68964 34.577C4.12632 34.3206 3.61933 34.0501 3.16866 33.7652C2.71799 33.4802 2.33072 33.1598 2.0068 32.8038C1.69697 32.4478 1.45756 32.0347 1.28856 31.5647C1.11957 31.0806 1.03507 30.5107 1.03507 29.8556C1.03507 28.8729 1.27448 28.0539 1.75331 27.3988C2.23213 26.7293 2.89404 26.2309 3.73903 25.9034C4.59809 25.5615 5.59095 25.3906 6.71761 25.3906C7.70342 25.3906 8.59066 25.5046 9.37932 25.7324C10.168 25.9461 10.8721 26.1953 11.4918 26.4802L10.2454 29.6634C9.59762 29.3643 8.95683 29.1293 8.32309 28.9584C7.70342 28.7733 7.12603 28.6806 6.59086 28.6806C6.23879 28.6806 5.95007 28.7234 5.72475 28.8088C5.49943 28.8943 5.33043 29.0152 5.21776 29.172C5.11918 29.3143 5.06988 29.4783 5.06988 29.6634C5.06988 29.9056 5.16143 30.1192 5.3445 30.3043C5.52758 30.4893 5.83037 30.696 6.25287 30.9238C6.68943 31.1374 7.28093 31.4152 8.02734 31.757C8.75965 32.0847 9.37932 32.4478 9.88631 32.8465C10.4074 33.2311 10.8017 33.6939 11.0693 34.2352C11.351 34.762 11.4918 35.4243 11.4918 36.222ZM26.6414 34.7906C26.6414 36.0724 26.4019 37.1833 25.9231 38.1233C25.4443 39.0633 24.719 39.7897 23.7473 40.3024C22.7896 40.8152 21.5855 41.0715 20.1349 41.0715C18.0506 41.0715 16.4592 40.5374 15.3608 39.4693C14.2763 38.3869 13.7342 36.8557 13.7342 34.8761V25.6043H17.8323V34.5556C17.8323 35.638 18.0295 36.4215 18.4238 36.9056C18.8322 37.3898 19.4237 37.632 20.1983 37.632C20.7616 37.632 21.2123 37.5252 21.5503 37.3115C21.9024 37.0979 22.1559 36.7633 22.3108 36.3074C22.4798 35.8516 22.5643 35.2606 22.5643 34.5343V25.6043H26.6414V34.7906ZM34.7498 25.6043C36.1158 25.6043 37.2494 25.7752 38.1509 26.117C39.0661 26.4588 39.7492 26.9643 40.2 27.6338C40.6647 28.2889 40.8971 29.1151 40.8971 30.112C40.8971 30.7243 40.7915 31.287 40.5802 31.7997C40.383 32.3124 40.0944 32.7683 39.7141 33.167C39.3339 33.5657 38.876 33.9147 38.341 34.2138L42.735 40.8579H38.1086L34.9188 35.3034H33.8837V40.8579H29.8066V25.6043H34.7498ZM34.6864 28.7234H33.8837V32.2056H34.6442C35.0667 32.2056 35.4327 32.1487 35.7427 32.0347C36.0664 31.9065 36.3199 31.7071 36.5032 31.4365C36.6862 31.1516 36.7778 30.7743 36.7778 30.3043C36.7778 29.9766 36.7073 29.6989 36.5665 29.4711C36.4255 29.2289 36.2003 29.0438 35.8905 28.9156C35.5805 28.7874 35.1792 28.7234 34.6864 28.7234ZM57.1367 25.6043L52.1935 40.8579H47.3982L42.4762 25.6043H47.0602L49.1093 33.3379C49.1798 33.6228 49.2643 33.993 49.3628 34.4488C49.4616 34.9047 49.5529 35.3602 49.6374 35.8161C49.7362 36.2719 49.7924 36.642 49.8064 36.927C49.8347 36.642 49.8841 36.2789 49.9543 35.8374C50.0388 35.3816 50.1233 34.933 50.2078 34.4915C50.3066 34.0357 50.3979 33.6656 50.4824 33.3806L52.5738 25.6043H57.1367ZM65.7205 40.8579H57.8621V38.5079L59.7422 37.7815V28.6593L57.8621 27.9543V25.6043H65.7205V27.9543L63.8404 28.6593V37.7815L65.7205 38.5079V40.8579ZM81.1085 25.6043L76.1653 40.8579H71.37L66.4479 25.6043H71.032L73.0811 33.3379C73.1513 33.6228 73.2358 33.993 73.3346 34.4488C73.4331 34.9047 73.5247 35.3602 73.6092 35.8161C73.7077 36.2719 73.764 36.642 73.7782 36.927C73.8062 36.642 73.8556 36.2789 73.9261 35.8374C74.0106 35.3816 74.0951 34.933 74.1796 34.4915C74.2781 34.0357 74.3697 33.6656 74.4542 33.3806L76.5456 25.6043H81.1085ZM91.1488 40.8579L90.4094 37.9952H85.5085L84.748 40.8579H80.2696L85.1916 25.5402H90.6207L95.6061 40.8579H91.1488ZM88.9096 32.1202C88.8393 31.8497 88.7406 31.4651 88.6138 30.9665C88.4871 30.4538 88.3603 29.9269 88.2336 29.3856C88.1068 28.8443 88.0083 28.4029 87.9378 28.0611C87.8816 28.4029 87.79 28.8302 87.6632 29.3429C87.5507 29.8556 87.4308 30.3611 87.3041 30.8597C87.1916 31.3583 87.0928 31.7784 87.0083 32.1202L86.3535 34.6197H89.5644L88.9096 32.1202ZM97.224 40.8579V25.6043H101.301V37.5252H107.11V40.8579H97.224Z" fill="#9CB3FC"/>
</svg>
