<svg width="30" height="30" viewBox="0 0 30 30" fill="none" xmlns="http://www.w3.org/2000/svg">
<path d="M15.1125 22.5C15.4375 22.5 15.7063 22.3938 15.9188 22.1813C16.1313 21.9688 16.2375 21.7 16.2375 21.375V16.275H21.4125C21.7125 16.275 21.9688 16.1687 22.1813 15.9562C22.3938 15.7437 22.5 15.475 22.5 15.15C22.5 14.825 22.3938 14.5562 22.1813 14.3438C21.9688 14.1313 21.7 14.025 21.375 14.025H16.2375V8.5875C16.2375 8.2875 16.1313 8.03125 15.9188 7.81875C15.7063 7.60625 15.4375 7.5 15.1125 7.5C14.7875 7.5 14.5188 7.60625 14.3063 7.81875C14.0938 8.03125 13.9875 8.3 13.9875 8.625V14.025H8.5875C8.2875 14.025 8.03125 14.1313 7.81875 14.3438C7.60625 14.5562 7.5 14.825 7.5 15.15C7.5 15.475 7.60625 15.7437 7.81875 15.9562C8.03125 16.1687 8.3 16.275 8.625 16.275H13.9875V21.4125C13.9875 21.7125 14.0938 21.9688 14.3063 22.1813C14.5188 22.3938 14.7875 22.5 15.1125 22.5ZM15 30C12.875 30 10.9 29.6187 9.075 28.8562C7.25 28.0937 5.6625 27.0375 4.3125 25.6875C2.9625 24.3375 1.90625 22.75 1.14375 20.925C0.38125 19.1 0 17.125 0 15C0 12.9 0.38125 10.9375 1.14375 9.1125C1.90625 7.2875 2.9625 5.7 4.3125 4.35C5.6625 3 7.25 1.9375 9.075 1.1625C10.9 0.3875 12.875 0 15 0C17.1 0 19.0625 0.3875 20.8875 1.1625C22.7125 1.9375 24.3 3 25.65 4.35C27 5.7 28.0625 7.2875 28.8375 9.1125C29.6125 10.9375 30 12.9 30 15C30 17.125 29.6125 19.1 28.8375 20.925C28.0625 22.75 27 24.3375 25.65 25.6875C24.3 27.0375 22.7125 28.0937 20.8875 28.8562C19.0625 29.6187 17.1 30 15 30ZM15 27.75C18.5 27.75 21.5 26.5 24 24C26.5 21.5 27.75 18.5 27.75 15C27.75 11.5 26.5 8.5 24 6C21.5 3.5 18.5 2.25 15 2.25C11.5 2.25 8.5 3.5 6 6C3.5 8.5 2.25 11.5 2.25 15C2.25 18.5 3.5 21.5 6 24C8.5 26.5 11.5 27.75 15 27.75Z" fill="#5A81FA" fill-opacity="0.6"/>
</svg>
