<svg width="24" height="24" viewBox="0 0 24 24" fill="none" xmlns="http://www.w3.org/2000/svg">
<path d="M11.3879 23.9146C9.79359 23.9146 8.30368 23.6204 6.91815 23.032C5.53262 22.4437 4.3274 21.637 3.30249 20.6121C2.27758 19.5872 1.47094 18.382 0.882562 16.9964C0.294188 15.6109 0 14.121 0 12.5267C0 10.9324 0.294188 9.44247 0.882562 8.05694C1.47094 6.67141 2.27758 5.46619 3.30249 4.44128C4.3274 3.41637 5.53262 2.60973 6.91815 2.02135C8.30368 1.43298 9.79359 1.13879 11.3879 1.13879C12.1851 1.13879 12.9205 1.20522 13.5943 1.33808C14.2681 1.47094 15.0795 1.71767 16.0285 2.07829L13.6939 3.1032C13.3333 3.0083 12.9917 2.94187 12.669 2.90391C12.3464 2.86595 11.9193 2.84697 11.3879 2.84697C11.0083 2.84697 10.5765 2.87544 10.0925 2.93238C9.60854 2.98932 9.16726 3.08422 8.76868 3.21708C10.1922 4.83037 11.6489 6.13049 13.1388 7.11744C14.6287 8.10439 16.7117 8.48398 19.3879 8.25623L20.0427 9.879C17.5184 10.2017 15.3215 9.96441 13.452 9.16726C11.5824 8.37011 9.9739 7.19336 8.62633 5.63701C7.98102 7.17438 7.05575 8.5172 5.85053 9.66548C4.64531 10.8138 3.26453 11.7011 1.70818 12.3274C1.70818 15.0795 2.64769 17.414 4.52669 19.331C6.40569 21.2479 8.69276 22.2064 11.3879 22.2064C14.102 22.2064 16.3938 21.2622 18.2633 19.3737C20.1329 17.4852 21.0676 15.2028 21.0676 12.5267C21.0676 12.1091 21.0439 11.7343 20.9964 11.4021L20.8683 10.5053L21.8932 8.08541C22.1969 8.90154 22.4199 9.63226 22.5623 10.2776C22.7046 10.9229 22.7758 11.6726 22.7758 12.5267C22.7758 14.102 22.4816 15.5824 21.8932 16.968C21.3049 18.3535 20.4982 19.5587 19.4733 20.5836C18.4484 21.6085 17.2432 22.4199 15.8577 23.0178C14.4721 23.6157 12.9822 23.9146 11.3879 23.9146ZM1.99288 10.2491C2.90391 9.90747 3.94306 9.13879 5.11032 7.94306C6.27758 6.74733 7.10795 5.29537 7.60142 3.58719C5.95018 4.3274 4.70225 5.2669 3.85765 6.40569C3.01305 7.54448 2.39146 8.82562 1.99288 10.2491ZM7.80071 15.2883C7.36418 15.2883 6.99881 15.1412 6.70463 14.847C6.41044 14.5528 6.26335 14.1874 6.26335 13.7509C6.26335 13.3144 6.41044 12.949 6.70463 12.6548C6.99881 12.3606 7.36418 12.2135 7.80071 12.2135C8.23725 12.2135 8.60261 12.3606 8.8968 12.6548C9.19098 12.949 9.33808 13.3144 9.33808 13.7509C9.33808 14.1874 9.19098 14.5528 8.8968 14.847C8.60261 15.1412 8.23725 15.2883 7.80071 15.2883ZM15.0036 15.2883C14.567 15.2883 14.2017 15.1412 13.9075 14.847C13.6133 14.5528 13.4662 14.1874 13.4662 13.7509C13.4662 13.3144 13.6133 12.949 13.9075 12.6548C14.2017 12.3606 14.567 12.2135 15.0036 12.2135C15.4401 12.2135 15.8055 12.3606 16.0996 12.6548C16.3938 12.949 16.5409 13.3144 16.5409 13.7509C16.5409 14.1874 16.3938 14.5528 16.0996 14.847C15.8055 15.1412 15.4401 15.2883 15.0036 15.2883ZM20.6121 6.86121C20.5172 6.86121 20.4365 6.84697 20.3701 6.8185C20.3037 6.79003 20.2515 6.72835 20.2135 6.63345L19.331 4.6121L17.452 3.81495C17.3571 3.77699 17.2906 3.72479 17.2527 3.65836C17.2147 3.59193 17.1957 3.51127 17.1957 3.41637C17.1957 3.32147 17.2147 3.24081 17.2527 3.17438C17.2906 3.10795 17.3571 3.05575 17.452 3.01779L19.331 2.24911L20.2135 0.227758C20.2515 0.132859 20.3037 0.0711744 20.3701 0.0427046C20.4365 0.0142349 20.5172 0 20.6121 0C20.707 0 20.7877 0.0189798 20.8541 0.0569394C20.9205 0.0948991 20.9727 0.161329 21.0107 0.256228L21.8648 2.24911L23.7438 3.01779C23.8387 3.05575 23.9051 3.10795 23.9431 3.17438C23.981 3.24081 24 3.32147 24 3.41637C24 3.51127 23.981 3.59193 23.9431 3.65836C23.9051 3.72479 23.8387 3.77699 23.7438 3.81495L21.8648 4.6121L21.0107 6.60498C20.9727 6.69988 20.9205 6.76631 20.8541 6.80427C20.7877 6.84223 20.707 6.86121 20.6121 6.86121Z" fill="#2B308C"/>
</svg>
