<svg width="24" height="24" viewBox="0 0 24 24" fill="none" xmlns="http://www.w3.org/2000/svg">
<path d="M14.0214 24H9.97142C9.74643 24 9.547 23.93 9.37314 23.79C9.19928 23.65 9.09189 23.47 9.05099 23.25L8.56008 20.22C8.17145 20.08 7.76237 19.89 7.33283 19.65C6.90329 19.41 6.52489 19.16 6.19762 18.9L3.34426 20.19C3.11927 20.29 2.89427 20.305 2.66927 20.235C2.44428 20.165 2.27042 20.02 2.14769 19.8L0.122725 16.29C4.57187e-08 16.09 -0.0306813 15.88 0.0306813 15.66C0.0920439 15.44 0.214769 15.26 0.398857 15.12L3.03745 13.23C2.99654 13.05 2.97097 12.845 2.96075 12.615C2.95052 12.385 2.94541 12.18 2.94541 12C2.94541 11.82 2.95052 11.615 2.96075 11.385C2.97097 11.155 2.99654 10.95 3.03745 10.77L0.398857 8.88C0.214769 8.74 0.0920439 8.56 0.0306813 8.34C-0.0306813 8.12 4.57187e-08 7.91 0.122725 7.71L2.14769 4.2C2.27042 3.98 2.44428 3.835 2.66927 3.765C2.89427 3.695 3.11927 3.71 3.34426 3.81L6.19762 5.1C6.52489 4.84 6.90329 4.59 7.33283 4.35C7.76237 4.11 8.17145 3.93 8.56008 3.81L9.05099 0.75C9.09189 0.53 9.19928 0.35 9.37314 0.21C9.547 0.0699999 9.74643 0 9.97142 0H14.0214C14.2464 0 14.4458 0.0699999 14.6196 0.21C14.7935 0.35 14.9009 0.53 14.9418 0.75L15.4327 3.78C15.8213 3.92 16.2355 4.105 16.6753 4.335C17.1151 4.565 17.4883 4.82 17.7952 5.1L20.6485 3.81C20.8735 3.71 21.0985 3.695 21.3235 3.765C21.5485 3.835 21.7224 3.98 21.8451 4.2L23.8701 7.68C23.9928 7.88 24.0286 8.095 23.9774 8.325C23.9263 8.555 23.7985 8.74 23.5939 8.88L20.9553 10.71C20.9962 10.91 21.0218 11.125 21.032 11.355C21.0423 11.585 21.0474 11.8 21.0474 12C21.0474 12.2 21.0423 12.41 21.032 12.63C21.0218 12.85 20.9962 13.06 20.9553 13.26L23.5939 15.12C23.778 15.26 23.9007 15.44 23.9621 15.66C24.0235 15.88 23.9928 16.09 23.8701 16.29L21.8451 19.8C21.7224 20.02 21.5485 20.165 21.3235 20.235C21.0985 20.305 20.8735 20.29 20.6485 20.19L17.7952 18.9C17.4679 19.16 17.0946 19.415 16.6753 19.665C16.256 19.915 15.8418 20.1 15.4327 20.22L14.9418 23.25C14.9009 23.47 14.7935 23.65 14.6196 23.79C14.4458 23.93 14.2464 24 14.0214 24ZM11.9964 15.9C13.1009 15.9 14.0418 15.52 14.8191 14.76C15.5963 14 15.985 13.08 15.985 12C15.985 10.92 15.5963 10 14.8191 9.24C14.0418 8.48 13.1009 8.1 11.9964 8.1C10.8919 8.1 9.95097 8.48 9.17371 9.24C8.39645 10 8.00782 10.92 8.00782 12C8.00782 13.08 8.39645 14 9.17371 14.76C9.95097 15.52 10.8919 15.9 11.9964 15.9Z" fill="#2B308B"/>
</svg>
